<svg xmlns="http://www.w3.org/2000/svg" xmlns:xlink="http://www.w3.org/1999/xlink" width="500" zoomAndPan="magnify" viewBox="0 0 375 374.999991" height="500" preserveAspectRatio="xMidYMid meet" version="1.0"><defs><clipPath id="72e5709d7a"><path d="M 37.5 80.046875 L 337 80.046875 L 337 294 L 37.5 294 Z M 37.5 80.046875 " clip-rule="nonzero"/></clipPath></defs><rect x="-37.5" width="450" fill="#ffffff" y="-37.499999" height="449.999989" fill-opacity="1"/><rect x="-37.5" width="450" fill="#ffffff" y="-37.499999" height="449.999989" fill-opacity="1"/><g clip-path="url(#72e5709d7a)"><path fill="#000000" d="M 192.277344 292 C 167.371094 291.375 145.445312 283.371094 126.179688 267.683594 C 104.71875 250.113281 92.191406 227.207031 88.117188 200.066406 C 84.359375 174.960938 89.683594 151.429688 102.996094 129.621094 C 110.984375 116.445312 121.636719 106.089844 134.011719 97.144531 C 136.984375 94.949219 139.804688 92.597656 143.878906 92.753906 C 144.816406 92.753906 145.914062 91.96875 147.011719 91.5 C 162.203125 83.496094 178.492188 80.046875 195.566406 81.144531 C 219.53125 82.710938 240.832031 91.183594 259.003906 107.34375 C 275.449219 121.933594 286.414062 139.976562 291.425781 161.46875 C 299.257812 195.042969 292.992188 226.109375 271.847656 253.40625 C 256.652344 273.175781 236.132812 284.941406 211.855469 289.804688 C 205.589844 290.902344 198.855469 291.214844 192.277344 292 Z M 95.007812 185.945312 C 95.007812 189.710938 94.695312 193.320312 95.007812 197.082031 C 97.203125 215.753906 103.625 232.855469 115.058594 247.757812 C 125.394531 261.25 138.238281 271.605469 153.902344 278.195312 C 168.625 284.3125 183.664062 286.980469 199.640625 285.410156 C 209.976562 284.3125 219.84375 281.960938 229.242188 277.722656 C 248.195312 269.253906 262.761719 255.917969 273.414062 238.1875 C 285.628906 217.949219 290.171875 195.984375 286.882812 172.609375 C 282.96875 144.839844 269.808594 122.089844 247.410156 105.148438 C 232.84375 94.164062 216.398438 87.734375 198.386719 86.164062 C 181.941406 84.753906 166.121094 87.574219 150.925781 93.851562 C 148.265625 94.949219 145.601562 95.734375 144.191406 98.558594 C 143.722656 99.5 142.625 100.128906 141.527344 100.597656 C 127.902344 107.816406 117.71875 118.796875 109.734375 131.503906 C 99.238281 148.132812 94.382812 166.332031 95.007812 185.945312 Z M 48.960938 166.175781 C 47.707031 162.410156 47.394531 158.332031 47.238281 154.410156 C 46.765625 144.527344 46.765625 134.800781 46.140625 124.914062 C 45.828125 120.835938 44.886719 116.757812 43.945312 112.835938 C 43.632812 111.738281 42.539062 110.480469 41.597656 110.167969 C 39.875 109.695312 39.25 111.421875 38.777344 112.835938 C 38.621094 113.304688 38.464844 113.933594 38.464844 114.5625 C 38.152344 118.640625 37.683594 122.71875 37.683594 126.796875 C 37.839844 135.582031 38.152344 144.371094 38.464844 153.3125 C 38.777344 160.058594 40.03125 166.492188 42.222656 172.921875 C 43.476562 176.53125 44.261719 180.453125 44.261719 184.21875 C 44.417969 193.632812 44.105469 203.046875 43.632812 212.457031 C 43.164062 220.460938 42.539062 228.460938 41.597656 236.460938 C 40.5 246.03125 39.5625 255.757812 40.972656 265.328125 C 42.066406 272.703125 43.789062 279.921875 47.550781 286.351562 C 51.308594 292.628906 58.515625 295.296875 65.25 292.941406 C 69.476562 291.53125 71.984375 288.234375 73.394531 284.15625 C 74.960938 279.761719 75.273438 275.371094 75.273438 270.664062 C 75.117188 252.9375 74.019531 235.363281 72.453125 217.792969 C 71.828125 211.359375 71.042969 205.085938 70.261719 198.652344 C 68.695312 186.730469 68.226562 174.804688 73.394531 163.351562 C 77.464844 154.566406 78.40625 145.3125 77.9375 135.742188 C 77.621094 128.996094 77.308594 122.40625 76.839844 115.660156 C 76.683594 111.894531 76.371094 107.972656 76.058594 104.207031 C 75.898438 102.792969 75.742188 101.070312 73.863281 101.070312 C 71.984375 101.070312 71.828125 102.792969 71.671875 104.207031 C 71.671875 104.363281 71.671875 104.519531 71.671875 104.675781 C 71.359375 113.148438 71.042969 121.777344 70.574219 130.25 C 70.417969 134.640625 70.105469 139.035156 69.636719 143.429688 C 69.164062 148.761719 67.597656 153.625 64.777344 158.332031 C 60.707031 164.765625 59.296875 171.980469 59.296875 179.511719 C 59.296875 193.160156 62.117188 206.339844 63.210938 219.832031 C 64.152344 230.1875 65.40625 240.542969 66.34375 250.894531 C 66.972656 257.484375 67.597656 263.917969 67.753906 270.507812 C 67.910156 274.429688 67.597656 278.507812 66.972656 282.429688 C 65.875 288.234375 61.175781 290.117188 56.476562 286.507812 C 54.597656 285.097656 52.875 282.902344 51.777344 280.703125 C 50.367188 277.882812 49.429688 274.898438 48.804688 271.917969 C 46.296875 261.878906 46.453125 251.523438 48.019531 241.324219 C 50.527344 225.167969 52.09375 208.851562 52.09375 190.496094 C 52.5625 183.75 51.777344 174.804688 48.960938 166.175781 Z M 315.234375 210.261719 C 314.605469 214.339844 313.980469 218.421875 313.039062 222.5 C 309.90625 237.875 310.222656 253.40625 311.945312 268.78125 C 312.414062 272.390625 313.195312 276.15625 314.292969 279.605469 C 315.859375 284.785156 319.304688 288.707031 324.789062 289.960938 C 331.054688 291.53125 337.316406 290.433594 336.691406 281.804688 C 336.691406 281.019531 336.691406 280.078125 336.691406 279.292969 C 336.378906 261.09375 336.378906 242.894531 335.910156 224.539062 C 335.4375 207.28125 334.8125 190.023438 334.183594 172.921875 C 333.871094 160.84375 333.558594 148.761719 333.089844 136.683594 C 332.777344 129.308594 332.304688 121.933594 331.992188 114.5625 C 331.835938 110.636719 331.679688 106.558594 331.210938 102.636719 C 331.054688 100.285156 330.425781 97.929688 329.957031 95.578125 C 329.800781 94.949219 328.859375 94.636719 328.234375 94.007812 C 327.921875 94.792969 327.605469 95.261719 327.605469 95.578125 C 328.078125 113.304688 328.234375 130.878906 327.292969 148.605469 C 326.511719 162.882812 326.195312 177.160156 326.195312 191.277344 C 326.195312 207.753906 326.511719 224.382812 326.980469 240.855469 C 327.292969 252.9375 328.234375 265.015625 328.859375 277.097656 C 329.015625 278.820312 329.171875 280.703125 329.488281 282.746094 C 326.195312 282.273438 324.316406 280.546875 323.378906 278.039062 C 322.4375 275.371094 321.65625 272.546875 321.183594 269.722656 C 320.089844 261.722656 319.148438 253.5625 318.367188 245.5625 C 317.894531 239.128906 317.894531 232.695312 317.894531 226.421875 C 317.894531 221.085938 318.207031 215.597656 318.367188 210.261719 C 318.367188 209.164062 318.050781 208.222656 317.738281 206.8125 C 315.546875 207.4375 315.390625 208.851562 315.234375 210.261719 Z M 316.484375 148.132812 C 318.050781 133.542969 319.617188 118.953125 321.183594 104.363281 C 321.339844 102.636719 321.339844 100.910156 321.027344 99.1875 C 320.871094 98.402344 320.089844 97.773438 319.304688 96.832031 C 318.679688 98.085938 318.050781 98.871094 317.894531 99.65625 C 315.703125 108.757812 313.351562 117.855469 311.785156 127.113281 C 308.96875 142.644531 306.617188 158.332031 304.425781 173.863281 C 303.640625 179.199219 303.328125 184.691406 303.171875 190.023438 C 303.015625 194.101562 305.207031 196.457031 309.125 197.082031 C 311.785156 197.554688 314.449219 197.242188 317.113281 197.242188 C 318.679688 197.242188 319.933594 196.613281 320.246094 195.042969 C 320.558594 193.320312 319.933594 191.90625 318.367188 191.121094 C 316.328125 190.023438 314.292969 189.082031 311.945312 187.671875 C 313.511719 174.335938 315.078125 161.3125 316.484375 148.132812 Z M 58.042969 133.386719 C 58.515625 126.484375 58.828125 119.582031 58.984375 112.519531 C 58.984375 110.167969 58.199219 107.816406 57.574219 105.460938 C 57.417969 104.832031 56.320312 104.050781 55.851562 104.050781 C 55.066406 104.207031 54.285156 104.992188 53.660156 105.617188 C 53.34375 105.933594 53.1875 106.714844 53.1875 107.1875 C 52.875 116.128906 52.5625 125.070312 52.40625 134.015625 C 52.40625 135.898438 52.875 137.625 54.910156 138.722656 C 57.417969 137.78125 57.886719 135.425781 58.042969 133.386719 Z M 62.585938 107.03125 C 62.117188 109.226562 61.648438 111.421875 61.488281 113.777344 C 61.332031 121.148438 61.488281 128.523438 61.488281 135.898438 C 61.488281 136.683594 61.332031 137.464844 61.648438 137.9375 C 62.117188 138.878906 63.054688 139.507812 63.683594 140.289062 C 64.464844 139.507812 65.5625 138.878906 65.875 138.09375 C 66.34375 135.898438 66.34375 133.542969 66.660156 131.347656 C 68.070312 123.03125 66.34375 115.03125 65.40625 106.875 C 65.40625 106.246094 64.621094 105.617188 63.839844 104.675781 C 63.527344 105.773438 62.742188 106.402344 62.585938 107.03125 Z M 251.171875 231.128906 C 248.195312 234.109375 245.375 237.402344 242.085938 240.070312 C 224.855469 254.347656 204.964844 259.523438 183.035156 255.757812 C 166.277344 252.9375 151.867188 245.089844 140.117188 232.855469 C 123.671875 215.910156 116.15625 195.828125 118.972656 172.136719 C 119.128906 171.355469 119.445312 170.414062 119.285156 169.628906 C 119.128906 167.902344 118.347656 166.648438 116.46875 166.332031 C 114.746094 166.019531 113.335938 166.648438 112.550781 168.375 C 112.238281 169 112.082031 169.628906 111.925781 170.414062 C 110.828125 178.257812 110.671875 186.101562 112.082031 193.789062 C 117.09375 220.144531 131.816406 239.445312 155.15625 252.152344 C 168.625 259.523438 183.347656 262.347656 198.699219 261.566406 C 212.640625 260.9375 225.484375 256.699219 236.917969 248.699219 C 243.027344 244.464844 248.195312 239.285156 252.421875 233.011719 C 253.050781 232.070312 254.148438 231.285156 252.582031 229.875 C 252.265625 230.34375 251.640625 230.65625 251.171875 231.128906 Z M 266.832031 193.632812 C 267.148438 193.160156 267.304688 192.691406 267.460938 192.0625 C 270.4375 183.589844 270.59375 175.121094 268.558594 166.492188 C 264.640625 149.859375 255.085938 136.839844 241.929688 126.484375 C 228.617188 116.128906 213.421875 110.167969 196.664062 108.128906 C 178.808594 105.933594 161.890625 108.914062 146.070312 117.855469 C 138.710938 122.089844 132.289062 127.425781 127.433594 134.484375 C 126.648438 135.582031 126.023438 136.683594 125.550781 137.78125 C 124.769531 139.507812 125.238281 140.917969 126.648438 142.015625 C 128.058594 143.113281 129.625 143.113281 131.035156 142.015625 C 131.972656 141.230469 132.914062 140.132812 133.539062 139.191406 C 140.589844 128.996094 150.300781 122.25 161.890625 118.324219 C 176.769531 113.304688 192.121094 112.835938 207.3125 116.445312 C 228.617188 121.464844 246 132.601562 257.90625 151.429688 C 264.328125 161.785156 267.304688 173.238281 265.894531 185.632812 C 265.738281 187.671875 265.265625 189.554688 265.109375 191.59375 C 265.109375 192.535156 265.265625 193.476562 265.582031 194.730469 C 266.363281 193.945312 266.675781 193.789062 266.832031 193.632812 Z M 266.832031 193.632812 " fill-opacity="1" fill-rule="nonzero"/></g></svg>